<?xml version="1.0" encoding="UTF-8"?>
<svg xmlns="http://www.w3.org/2000/svg" xmlns:xlink="http://www.w3.org/1999/xlink" width="35px" height="35px" viewBox="0 0 35 35" version="1.1">
<g id="surface1">
<path style=" stroke:none;fill-rule:evenodd;fill:rgb(0%,0%,0%);fill-opacity:1;" d="M 23.4375 5.867188 C 22.03125 4.433594 20.042969 3.644531 17.722656 3.644531 C 15.402344 3.644531 13.410156 4.433594 12.003906 5.867188 C 10.597656 7.300781 9.824219 9.316406 9.824219 11.667969 C 9.824219 14.828125 11.199219 16.867188 12.90625 18.09375 C 13.238281 18.332031 13.578125 18.535156 13.921875 18.714844 C 12.019531 19.238281 10.472656 20.148438 9.214844 21.28125 C 7.222656 23.074219 5.988281 25.375 5.15625 27.4375 C 5.007812 27.808594 5.1875 28.234375 5.5625 28.386719 C 5.933594 28.535156 6.359375 28.355469 6.511719 27.980469 C 7.300781 26.019531 8.429688 23.945312 10.1875 22.367188 C 11.925781 20.804688 14.320312 19.6875 17.722656 19.6875 C 20.902344 19.6875 23.195312 20.664062 24.898438 22.0625 C 26.617188 23.472656 27.773438 25.347656 28.605469 27.203125 C 29.15625 28.441406 28.1875 29.894531 26.664062 29.894531 L 9.835938 29.894531 C 9.433594 29.894531 9.109375 30.222656 9.109375 30.625 C 9.109375 31.027344 9.433594 31.355469 9.835938 31.355469 L 26.664062 31.355469 C 29.070312 31.355469 30.984375 28.960938 29.9375 26.609375 C 29.054688 24.640625 27.78125 22.542969 25.824219 20.933594 C 24.664062 19.980469 23.273438 19.210938 21.613281 18.742188 C 22.5 18.25 23.234375 17.597656 23.8125 16.855469 C 25.074219 15.257812 25.617188 13.269531 25.617188 11.667969 C 25.617188 9.316406 24.847656 7.300781 23.4375 5.867188 Z M 22.398438 6.890625 C 23.5 8.011719 24.160156 9.640625 24.160156 11.667969 C 24.160156 12.980469 23.703125 14.640625 22.667969 15.957031 C 21.652344 17.246094 20.066406 18.230469 17.722656 18.230469 C 16.773438 18.230469 15.136719 17.898438 13.757812 16.90625 C 12.414062 15.945312 11.28125 14.335938 11.28125 11.667969 C 11.28125 9.640625 11.945312 8.011719 13.046875 6.890625 C 14.144531 5.773438 15.742188 5.105469 17.722656 5.105469 C 19.703125 5.105469 21.296875 5.773438 22.398438 6.890625 Z M 22.398438 6.890625 "/>
</g>
</svg>
