<?xml version="1.0" encoding="UTF-8"?>
<svg xmlns="http://www.w3.org/2000/svg" xmlns:xlink="http://www.w3.org/1999/xlink" width="85px" height="85px" viewBox="0 0 85 85" version="1.1">
<g id="surface1">
<path style=" stroke:none;fill-rule:nonzero;fill:rgb(0%,0%,0%);fill-opacity:1;" d="M 42.5 7.96875 C 23.460938 7.96875 7.96875 23.460938 7.96875 42.5 C 7.96875 61.539062 23.460938 77.03125 42.5 77.03125 C 61.539062 77.03125 77.03125 61.539062 77.03125 42.5 C 77.03125 23.460938 61.539062 7.96875 42.5 7.96875 Z M 42.5 13.28125 C 58.609375 13.28125 71.71875 26.390625 71.71875 42.5 C 71.71875 58.609375 58.609375 71.71875 42.5 71.71875 C 28.933594 71.71875 17.523438 62.410156 14.257812 49.84375 L 23.992188 54.015625 C 24.445312 57.992188 27.777344 61.09375 31.875 61.09375 C 36.277344 61.09375 39.84375 57.527344 39.84375 53.125 C 39.84375 53.039062 39.816406 52.960938 39.816406 52.871094 L 50.914062 45.117188 C 56.570312 44.878906 61.09375 40.25 61.09375 34.53125 C 61.09375 28.660156 56.339844 23.90625 50.46875 23.90625 C 44.75 23.90625 40.128906 28.429688 39.890625 34.085938 L 32.128906 45.183594 C 32.039062 45.183594 31.960938 45.15625 31.875 45.15625 C 30.117188 45.15625 28.5 45.746094 27.179688 46.710938 L 13.367188 40.792969 C 14.265625 25.480469 26.96875 13.28125 42.5 13.28125 Z M 50.46875 26.5625 C 54.871094 26.5625 58.4375 30.128906 58.4375 34.53125 C 58.4375 38.933594 54.871094 42.5 50.46875 42.5 C 46.066406 42.5 42.5 38.933594 42.5 34.53125 C 42.5 30.128906 46.066406 26.5625 50.46875 26.5625 Z M 50.46875 29.21875 C 47.535156 29.21875 45.15625 31.597656 45.15625 34.53125 C 45.15625 37.464844 47.535156 39.84375 50.46875 39.84375 C 53.402344 39.84375 55.78125 37.464844 55.78125 34.53125 C 55.78125 31.597656 53.402344 29.21875 50.46875 29.21875 Z M 31.875 47.8125 C 34.808594 47.8125 37.1875 50.191406 37.1875 53.125 C 37.1875 56.058594 34.808594 58.4375 31.875 58.4375 C 29.722656 58.4375 27.890625 57.15625 27.046875 55.324219 L 29.132812 56.21875 C 29.644531 56.4375 30.175781 56.546875 30.699219 56.546875 C 32.242188 56.546875 33.714844 55.636719 34.367188 54.128906 C 35.226562 52.101562 34.292969 49.765625 32.265625 48.894531 L 30.335938 48.066406 C 30.824219 47.917969 31.335938 47.8125 31.875 47.8125 Z M 31.875 47.8125 "/>
</g>
</svg>
